<?xml version="1.0" encoding="UTF-8"?>
<svg version="1.1" xmlns="http://www.w3.org/2000/svg" width="512" height="512">
<path d="M0 0 C1.14106201 0.73186523 1.14106201 0.73186523 2.30517578 1.47851562 C5.7299452 3.68752224 9.14272824 5.91412279 12.54638672 8.15551758 C39.28909588 25.73125409 69.54684663 35.56140194 101.65405273 29.47875977 C120.64413725 25.45954211 137.33117889 17.46439647 153.24609375 6.53515625 C157.1238971 3.88482956 161.10010388 1.4196909 165.125 -1 C165.74060791 -1.37374756 166.35621582 -1.74749512 166.99047852 -2.13256836 C173.30347166 -5.90082964 177.9469735 -7.36754878 185.3125 -7.3125 C186.10575684 -7.30686035 186.89901367 -7.3012207 187.71630859 -7.29541016 C211.77478014 -6.81146161 234.82721373 2.72504155 251.9375 19.7109375 C289.46645093 58.92205732 296.67602839 120.35265927 296.1484375 172.21484375 C295.18442885 196.79706442 287.67590908 218.41345346 270 236 C257.74104689 247.04840281 243.01917819 253.64846981 227 257 C226.17268246 257.17622485 225.34536491 257.3524497 224.49297714 257.5340147 C219.59134082 258.18792407 214.74759818 258.14803361 209.80767822 258.14717102 C208.67594075 258.15084771 207.54420328 258.1545244 206.37817073 258.1583125 C202.5831639 258.16933158 198.78818448 258.17319024 194.99316406 258.17700195 C192.27274849 258.1827383 189.55233698 258.18990263 186.83192444 258.19691467 C178.66519263 258.2166456 170.49845965 258.22674254 162.33170998 258.23564246 C158.47875586 258.24003225 154.62580309 258.24539739 150.77285004 258.25063133 C137.95143037 258.2676428 125.13001153 258.28213356 112.30858231 258.28938007 C108.98387908 258.29128975 105.65917586 258.29321011 102.33447266 258.29516602 C101.50820573 258.29564976 100.68193881 258.2961335 99.83063349 258.2966319 C86.46712212 258.30491945 73.10370063 258.33023512 59.74022844 258.36274669 C45.99673898 258.39590797 32.25329504 258.41383713 18.50976539 258.41702431 C10.80292419 258.41918141 3.09621393 258.4278115 -4.61058807 258.45348549 C-11.17891095 258.47531708 -17.74707109 258.48318242 -24.31542614 258.47351871 C-27.65959002 258.46900914 -31.00314993 258.47289594 -34.34731102 258.49028015 C-63.1527759 258.63154871 -87.93008542 254.13996419 -109.3125 233.1875 C-128.71843124 213.35081494 -132.5956666 189.7891627 -132.375 163.1875 C-132.37034729 162.19177979 -132.36569458 161.19605957 -132.36090088 160.17016602 C-132.27565231 144.60059188 -131.69861529 129.36731688 -129 114 C-128.80132324 112.84725586 -128.60264648 111.69451172 -128.39794922 110.50683594 C-123.03374694 80.29854175 -114.27582476 49.80873361 -94 26 C-93.071875 24.83210938 -93.071875 24.83210938 -92.125 23.640625 C-71.91233839 -0.78300778 -28.6253281 -18.46244764 0 0 Z " fill="#545657" transform="translate(177,254)"/>
<path d="M0 0 C25.66299736 20.94036549 43.16480369 49.12120944 47.07714844 82.39550781 C49.97580264 115.25856325 43.66182419 148.74252972 22.05810547 174.66699219 C18.9282958 178.27628641 15.63899941 181.71696602 12.3203125 185.15234375 C11.51722656 186.01859375 10.71414063 186.88484375 9.88671875 187.77734375 C-7.55482359 206.10671501 -30.97193957 216.76249178 -55.6796875 221.15234375 C-56.70578125 221.33796875 -57.731875 221.52359375 -58.7890625 221.71484375 C-91.50497592 225.39374165 -124.96199669 218.79085668 -151.07275391 198.02001953 C-152.62336376 196.74743661 -154.1548769 195.45570073 -155.6796875 194.15234375 C-156.45070801 193.49878906 -156.45070801 193.49878906 -157.23730469 192.83203125 C-177.51554149 175.46156917 -192.17173367 152.38329219 -197.6796875 126.15234375 C-197.85483887 125.38301514 -198.02999023 124.61368652 -198.21044922 123.82104492 C-199.91883499 115.65020609 -200.07808868 107.52758252 -200.0546875 99.21484375 C-200.05414368 98.48790314 -200.05359985 97.76096252 -200.05303955 97.01199341 C-200.01194535 85.03993656 -199.14288656 73.66714889 -195.6796875 62.15234375 C-195.47069824 61.45447754 -195.26170898 60.75661133 -195.04638672 60.03759766 C-185.71681333 30.20392814 -163.27890278 3.31783293 -135.59204102 -11.20092773 C-132.32647515 -12.83860217 -129.01624554 -14.36103623 -125.6796875 -15.84765625 C-124.62523437 -16.32976563 -123.57078125 -16.811875 -122.484375 -17.30859375 C-82.88592375 -34.01893763 -33.41125672 -26.32050683 0 0 Z " fill="#545657" transform="translate(331.6796875,24.84765625)"/>
</svg>
