<svg xmlns="http://www.w3.org/2000/svg" xmlns:xlink="http://www.w3.org/1999/xlink" fill="none" version="1.1" width="64" height="64" viewBox="0 0 64 64"><g><g><ellipse cx="32" cy="32" rx="32" ry="32" fill="#002C54" fill-opacity="1"/><ellipse cx="32" cy="32" rx="31.5" ry="31.5" fill-opacity="0" stroke-opacity="1" stroke="#002C54" fill="none" stroke-width="1"/></g><g transform="matrix(0.9417286515235901,-0.336373507976532,0.336373507976532,0.9417286515235901,-4.276805513419276,3.512633105144232)"><path d="M25.5095,54.51052653808594Q20.7107,54.51052653808594,17.312469999999998,52.714126538085935Q13.91458,50.91742653808594,12.1304,47.466026538085934Q10.34622,44.014626538085935,10.34622,39.068126538085934Q10.34622,34.236626538085936,12.1304,30.826226538085937Q13.91458,27.41552653808594,17.296129999999998,25.602826538085935Q20.678,23.78977653808594,25.4768,23.78977653808594Q28.2534,23.78977653808594,30.333,24.42552653808594Q32.4126,25.06122653808594,33.8828,26.11322653808594Q35.353300000000004,27.16522653808594,36.317099999999996,28.410126538085937Q37.281,29.655026538085938,37.8184,30.88962653808594Q38.3557,32.12432653808594,38.568799999999996,33.11252653808594L32.728300000000004,35.14272653808594L32.153999999999996,35.14272653808594Q31.8012,33.44892653808594,31.0671,32.107926538085934Q30.333,30.766626538085937,29.0718,29.98952653808594Q27.8105,29.21212653808594,25.8745,29.21212653808594Q24.5908,29.21212653808594,23.337600000000002,29.610126538085936Q22.084699999999998,30.007826538085936,21.0715,31.059826538085936Q20.0586,32.111826538085936,19.447499999999998,34.045926538085936Q18.8365,35.97972653808594,18.8365,39.068126538085934Q18.8365,42.849826538085935,19.7305,45.05032653808594Q20.624499999999998,47.250726538085935,22.185000000000002,48.196326538085934Q23.7458,49.14162653808594,25.7271,49.14162653808594Q27.6958,49.14162653808594,28.9939,48.37672653808594Q30.292,47.61152653808594,31.0466,46.278526538085934Q31.8012,44.945526538085936,32.153999999999996,43.23952653808594L32.728300000000004,43.23952653808594L38.568799999999996,45.28612653808594Q38.3394,46.30322653808594,37.8328,47.531726538085934Q37.3262,48.759926538085935,36.4011,49.988526538085935Q35.476299999999995,51.21702653808594,34.0222,52.244326538085936Q32.5684,53.271726538085936,30.4766,53.891126538085935Q28.3848,54.51052653808594,25.5095,54.51052653808594Z" fill="#FDF6F6" fill-opacity="1"/></g></g></svg>