<svg xmlns="http://www.w3.org/2000/svg" xmlns:xlink="http://www.w3.org/1999/xlink" zoomAndPan="magnify" preserveAspectRatio="xMidYMid meet" version="1.0" viewBox="56.18 144.14 262.64 107.74"><defs><g/><clipPath id="9850a4a789"><rect x="0" width="256" y="0" height="130"/></clipPath></defs><g transform="matrix(1, 0, 0, 1, 60, 116)"><g clip-path="url(#9850a4a789)"><g fill="#002c54" fill-opacity="1"><g transform="translate(0.67919, 100.356052)"><g><path d="M 20.375 -68.296875 L 20.375 -8.96875 L 52.1875 -8.96875 L 52.1875 0 L 9.625 0 L 9.625 -68.296875 Z M 20.375 -68.296875 "/></g></g></g><g fill="#002c54" fill-opacity="1"><g transform="translate(55.428984, 100.356052)"><g><path d="M 29.75 0.984375 C 24.800781 0.984375 20.472656 -0.0390625 16.765625 -2.09375 C 13.066406 -4.15625 10.203125 -7.191406 8.171875 -11.203125 C 6.148438 -15.222656 5.140625 -20.066406 5.140625 -25.734375 C 5.140625 -31.429688 6.148438 -36.28125 8.171875 -40.28125 C 10.203125 -44.289062 13.066406 -47.328125 16.765625 -49.390625 C 20.472656 -51.460938 24.800781 -52.5 29.75 -52.5 C 34.707031 -52.5 39.035156 -51.460938 42.734375 -49.390625 C 46.441406 -47.328125 49.316406 -44.289062 51.359375 -40.28125 C 53.398438 -36.28125 54.421875 -31.429688 54.421875 -25.734375 C 54.421875 -20.066406 53.398438 -15.222656 51.359375 -11.203125 C 49.316406 -7.191406 46.441406 -4.15625 42.734375 -2.09375 C 39.035156 -0.0390625 34.707031 0.984375 29.75 0.984375 Z M 29.75 -7.9375 C 39.0625 -7.9375 43.71875 -13.867188 43.71875 -25.734375 C 43.71875 -37.660156 39.0625 -43.625 29.75 -43.625 C 25.238281 -43.625 21.785156 -42.164062 19.390625 -39.25 C 16.992188 -36.34375 15.796875 -31.835938 15.796875 -25.734375 C 15.796875 -13.867188 20.445312 -7.9375 29.75 -7.9375 Z M 29.75 -7.9375 "/></g></g></g><g fill="#002c54" fill-opacity="1"><g transform="translate(114.569947, 100.356052)"><g><path d="M 26.625 21.859375 C 18.3125 21.859375 12.207031 20.554688 8.3125 17.953125 C 4.414062 15.359375 2.46875 11.832031 2.46875 7.375 C 2.46875 4.570312 3.335938 2.296875 5.078125 0.546875 C 6.828125 -1.191406 9.335938 -2.382812 12.609375 -3.03125 L 12.609375 -4.015625 C 10.960938 -4.984375 9.75 -6.097656 8.96875 -7.359375 C 8.1875 -8.617188 7.796875 -10.085938 7.796875 -11.765625 C 7.796875 -15.785156 10.398438 -18.46875 15.609375 -19.8125 L 15.609375 -20.78125 C 9.992188 -23.863281 7.1875 -28.675781 7.1875 -35.21875 C 7.1875 -38.613281 7.960938 -41.617188 9.515625 -44.234375 C 11.078125 -46.847656 13.320312 -48.878906 16.25 -50.328125 C 19.175781 -51.773438 22.648438 -52.5 26.671875 -52.5 C 30.972656 -52.5 34.492188 -51.660156 37.234375 -49.984375 C 39.035156 -52.222656 40.078125 -54.976562 40.359375 -58.25 L 41.34375 -58.859375 L 49.09375 -56.984375 C 48.8125 -54.460938 48.0625 -52.320312 46.84375 -50.5625 C 45.632812 -48.800781 43.847656 -47.316406 41.484375 -46.109375 L 41.484375 -45.078125 C 44.566406 -42.554688 46.109375 -38.988281 46.109375 -34.375 C 46.109375 -31.175781 45.320312 -28.289062 43.75 -25.71875 C 42.175781 -23.144531 39.914062 -21.125 36.96875 -19.65625 C 34.03125 -18.195312 30.597656 -17.46875 26.671875 -17.46875 C 26.328125 -17.46875 25.597656 -17.5 24.484375 -17.5625 C 23.234375 -17.625 22.34375 -17.65625 21.8125 -17.65625 C 20.414062 -17.65625 19.3125 -17.28125 18.5 -16.53125 C 17.6875 -15.789062 17.28125 -14.84375 17.28125 -13.6875 C 17.28125 -12.34375 17.753906 -11.328125 18.703125 -10.640625 C 19.660156 -9.960938 21.164062 -9.578125 23.21875 -9.484375 L 35.078125 -9.0625 C 45.953125 -8.71875 51.390625 -4.046875 51.390625 4.953125 C 51.390625 8.160156 50.546875 11.03125 48.859375 13.5625 C 47.179688 16.101562 44.492188 18.117188 40.796875 19.609375 C 37.109375 21.109375 32.382812 21.859375 26.625 21.859375 Z M 26.671875 -25.265625 C 29.722656 -25.265625 32.097656 -26.101562 33.796875 -27.78125 C 35.492188 -29.46875 36.34375 -31.851562 36.34375 -34.9375 C 36.34375 -38.050781 35.5 -40.457031 33.8125 -42.15625 C 32.132812 -43.851562 29.753906 -44.703125 26.671875 -44.703125 C 23.554688 -44.703125 21.171875 -43.859375 19.515625 -42.171875 C 17.867188 -40.492188 17.046875 -38.082031 17.046875 -34.9375 C 17.046875 -31.851562 17.867188 -29.46875 19.515625 -27.78125 C 21.171875 -26.101562 23.554688 -25.265625 26.671875 -25.265625 Z M 26.625 13.921875 C 31.644531 13.921875 35.296875 13.164062 37.578125 11.65625 C 39.867188 10.144531 41.015625 8.238281 41.015625 5.9375 C 41.015625 3.96875 40.429688 2.546875 39.265625 1.671875 C 38.097656 0.804688 36.128906 0.3125 33.359375 0.1875 L 22.515625 -0.375 L 20.78125 -0.421875 C 18.007812 -0.390625 15.953125 0.191406 14.609375 1.328125 C 13.273438 2.460938 12.609375 4.03125 12.609375 6.03125 C 12.609375 8.613281 13.773438 10.570312 16.109375 11.90625 C 18.453125 13.25 21.957031 13.921875 26.625 13.921875 Z M 26.625 13.921875 "/></g></g></g><g fill="#002c54" fill-opacity="1"><g transform="translate(167.778165, 100.356052)"><g><path d="M 8.21875 0 L 8.21875 -51.53125 L 18.5 -51.53125 L 18.5 0 Z M 13.359375 -59.65625 C 11.460938 -59.65625 9.898438 -60.242188 8.671875 -61.421875 C 7.441406 -62.609375 6.828125 -64.125 6.828125 -65.96875 C 6.828125 -67.769531 7.441406 -69.257812 8.671875 -70.4375 C 9.898438 -71.625 11.460938 -72.21875 13.359375 -72.21875 C 15.265625 -72.21875 16.820312 -71.625 18.03125 -70.4375 C 19.25 -69.257812 19.859375 -67.769531 19.859375 -65.96875 C 19.859375 -64.125 19.25 -62.609375 18.03125 -61.421875 C 16.820312 -60.242188 15.265625 -59.65625 13.359375 -59.65625 Z M 13.359375 -59.65625 "/></g></g></g><g fill="#002c54" fill-opacity="1"><g transform="translate(194.452352, 100.356052)"><g><path d="M 8.21875 0 L 8.21875 -51.53125 L 18.03125 -51.53125 L 18.03125 -43.71875 L 19.015625 -43.484375 C 20.660156 -46.441406 22.789062 -48.679688 25.40625 -50.203125 C 28.03125 -51.734375 31.222656 -52.5 34.984375 -52.5 C 41.054688 -52.5 45.484375 -50.90625 48.265625 -47.71875 C 51.054688 -44.53125 52.453125 -39.742188 52.453125 -33.359375 L 52.453125 0 L 42.1875 0 L 42.1875 -32.46875 C 42.1875 -36.488281 41.390625 -39.367188 39.796875 -41.109375 C 38.210938 -42.847656 35.660156 -43.71875 32.140625 -43.71875 C 27.929688 -43.71875 24.601562 -42.347656 22.15625 -39.609375 C 19.71875 -36.867188 18.5 -32.523438 18.5 -26.578125 L 18.5 0 Z M 8.21875 0 "/></g></g></g></g></g><path stroke-linecap="butt" transform="matrix(0.75, -0.000000000000000093, 0.000000000000000093, 0.75, 60.679191, 244.001072)" fill="none" stroke-linejoin="miter" d="M 0.000662113 4.498571 L 338.188184 4.498571 " stroke="#002c54" stroke-width="9" stroke-opacity="1" stroke-miterlimit="4"/></svg>