<svg xmlns="http://www.w3.org/2000/svg" xmlns:xlink="http://www.w3.org/1999/xlink" fill="none" version="1.1" width="360" height="160" viewBox="0 0 360 160"><g><g><rect x="0" y="0" width="360" height="160" rx="0" fill="#FDF6F6" fill-opacity="1"/></g><g><ellipse cx="276" cy="71" rx="62" ry="62" fill="#C5001A" fill-opacity="1"/></g><g transform="matrix(1,-0.003278670832514763,0.003278670832514763,1,-0.3474853775874749,0.08524544164538383)"><line x1="26" y1="103.98361206054688" x2="326" y2="103.98361206054688" fill-opacity="0" stroke-opacity="1" stroke="#002C54" fill="none" stroke-width="4"/></g><g><path d="M48.5745,95.53710000000001Q42.5589,95.53710000000001,38.237700000000004,93.18180000000001Q33.91691,90.82650000000001,31.62077,86.3123Q29.32462,81.798,29.32462,75.3418Q29.32462,68.9985,31.62077,64.5245Q33.91691,60.0501,38.2218,57.6789Q42.527,55.3076,48.5426,55.3076Q51.7598,55.3076,54.278800000000004,56.0327Q56.797799999999995,56.7578,58.6747,57.9961Q60.5521,59.234,61.8546,60.7622Q63.1571,62.29,63.9333,63.9123Q64.7096,65.5341,65.0265,67.0221L58.3499,69.35849999999999L57.6785,69.35849999999999Q57.2115,67.15090000000001,56.1344,65.41069999999999Q55.0576,63.6706,53.2986,62.669Q51.5396,61.6669,49.0206,61.6669Q47.0547,61.6669,45.2499,62.3064Q43.4451,62.945499999999996,42.0407,64.4788Q40.6362,66.012,39.8142,68.6602Q38.992599999999996,71.30799999999999,38.992599999999996,75.3418Q38.992599999999996,80.3852,40.2603,83.4362Q41.5279,86.4868,43.762,87.86189999999999Q45.9964,89.237,48.8754,89.237Q51.4267,89.237,53.2285,88.24080000000001Q55.0308,87.2442,56.1344,85.512Q57.2384,83.7799,57.7054,81.5668L58.3768,81.5668L65.05330000000001,83.9196Q64.7201,85.4285,63.9707,87.0483Q63.2217,88.6676,61.954,90.1794Q60.6864,91.6913,58.8254,92.9053Q56.9644,94.1192,54.426500000000004,94.8284Q51.8887,95.53710000000001,48.5745,95.53710000000001ZM71.6971,95L71.6971,53.6426L80.3232,53.1055L80.3232,63.9551L80.162,70.5775Q81.376,68.0048,83.5299,66.6918Q85.68379999999999,65.3784,88.8309,65.3784Q93.6598,65.3784,95.9879,68.4563Q98.3163,71.5338,98.3163,76.9422L98.3163,95L89.68520000000001,95L89.68520000000001,77.9736Q89.68520000000001,74.0368,88.6916,72.5085Q87.6979,70.9803,85.5977,70.9803Q84.3087,70.9803,83.32849999999999,71.4637Q82.34819999999999,71.9471,81.6739,72.9005Q81,73.8538,80.6563,75.2533Q80.3127,76.6523,80.3127,78.4784L80.3127,95L71.6971,95ZM118.4688,95.5694Q113.9785,95.5694,110.7559,93.6522Q107.5332,91.7345,105.809,88.313Q104.0848,84.8914,104.0848,80.3797Q104.0848,75.9058,105.8145,72.5329Q107.5441,69.1596,110.7668,67.2692Q113.9894,65.3784,118.4688,65.3784Q122.9482,65.3784,126.157,67.2692Q129.36700000000002,69.1596,131.096,72.5329Q132.826,75.9058,132.826,80.3797Q132.826,84.8914,131.101,88.313Q129.378,91.7345,126.168,93.6522Q122.9592,95.5694,118.4688,95.5694ZM118.4688,89.96209999999999Q120.3324,89.96209999999999,121.6025,88.8988Q122.8731,87.83500000000001,123.5336,85.7164Q124.1945,83.59729999999999,124.1945,80.3906Q124.1945,77.2003,123.55,75.1165Q122.9054,73.0322,121.6298,72.0063Q120.3542,70.9803,118.4688,70.9803Q115.6436,70.9803,114.1799,73.2928Q112.7163,75.6049,112.7163,80.3906Q112.7163,83.61330000000001,113.3768,85.74029999999999Q114.0377,87.8674,115.3213,88.91470000000001Q116.6049,89.96209999999999,118.4688,89.96209999999999ZM138.76600000000002,95L138.76600000000002,65.94239999999999L146.211,65.94239999999999L146.69400000000002,70.9375Q148.053,67.9675,150.04500000000002,66.8609Q152.038,65.7544,154.283,65.7544Q155.035,65.7544,155.763,65.8295Q156.491,65.9046,157.21,66.0339L156.673,72.334Q156.099,72.2375,155.556,72.1917Q155.014,72.146,154.638,72.146Q152.672,72.146,151.015,72.8875Q149.358,73.6285,148.369,75.0762Q147.381,76.52340000000001,147.381,78.62360000000001L147.381,95L138.76600000000002,95ZM175.499,95.53710000000001Q170.918,95.53710000000001,167.48,93.7055Q164.043,91.87389999999999,162.138,88.4875Q160.235,85.1012,160.235,80.47120000000001Q160.235,75.7824,162.034,72.4041Q163.833,69.0253,167.069,67.2021Q170.305,65.3784,174.57,65.3784Q178.963,65.3784,181.697,67.132Q184.431,68.8856,185.747,72.0142Q187.063,75.1429,187.16,79.3005Q187.16,80.138,187.085,80.8765Q187.009,81.6151,186.939,82.0985Q186.87,82.58189999999999,186.837,82.7002L168.791,82.7002Q169.021,85.0526,170.063,86.6723Q171.106,88.2916,172.768,89.12700000000001Q174.43,89.96209999999999,176.487,89.96209999999999Q178.775,89.96209999999999,180.733,89.2907Q182.691,88.61930000000001,184.394,87.56649999999999L184.839,87.56649999999999L186.692,92.0837Q184.99,93.60900000000001,182.017,94.5732Q179.044,95.53710000000001,175.499,95.53710000000001ZM168.662,78.0164L179.957,78.0164Q179.936,74.2516,178.644,72.5706Q177.352,70.8892,174.892,70.8892Q172.325,70.8892,170.6,72.5677Q168.877,74.2462,168.662,78.0164ZM204.105,95.53710000000001Q199.889,95.53710000000001,196.516,94.0949Q193.143,92.65270000000001,191.36,89.75229999999999L195.361,86.31479999999999L196.06,86.31479999999999Q197.241,88.297,199.314,89.1455Q201.388,89.994,203.187,89.994Q205.094,89.994,206.076,89.17240000000001Q207.06,88.35079999999999,207.06,86.88419999999999Q207.06,86.2829,206.815,85.75919999999999Q206.571,85.2355,205.923,84.7765Q205.276,84.31700000000001,204.063,83.90870000000001L200.271,82.5013Q197.365,81.44890000000001,195.641,80.2324Q193.916,79.0155,193.151,77.4474Q192.386,75.8789,192.386,73.8219Q192.386,69.9224,195.404,67.6506Q198.423,65.3784,203.542,65.3784Q205.969,65.3784,208.128,65.8966Q210.288,66.4149,212.011,67.5617Q213.736,68.7085,214.837,70.58840000000001L210.97,73.8916L210.604,73.8916Q209.675,72.4683,208.169,71.7461Q206.662,71.0235,205.003,71.0235Q203.799,71.0235,202.972,71.3353Q202.145,71.6467,201.723,72.224Q201.302,72.8014,201.302,73.623Q201.302,74.4556,201.86,75.1165Q202.419,75.7769,204.336,76.4911L208.993,78.4784Q211.389,79.39699999999999,212.732,80.62180000000001Q214.074,81.8463,214.616,83.27510000000001Q215.159,84.7034,215.159,86.2611Q215.159,88.9307,213.819,91.02539999999999Q212.479,93.12010000000001,210.005,94.3286Q207.532,95.53710000000001,204.105,95.53710000000001ZM223.384,95.01089999999999L223.384,55.8984L232.493,55.8984L232.493,71.8774L247.118,71.8774L247.118,55.8984L256.255,55.8984L256.255,95.01089999999999L247.118,95.01089999999999L247.118,78.0219L232.493,78.0219L232.493,95.01089999999999L223.384,95.01089999999999ZM274.505,95.53710000000001Q269.55899999999997,95.53710000000001,267.002,92.51339999999999Q264.446,89.4892,264.446,84.0539L264.446,65.94239999999999L273.055,65.94239999999999L273.055,83.0762Q273.055,85.606,273.506,87.1209Q273.957,88.6353,274.892,89.2932Q275.827,89.9512,277.288,89.9512Q278.647,89.9512,279.621,89.5244Q280.596,89.09729999999999,281.297,88.4825Q281.998,87.8674,282.439,87.27109999999999L282.439,65.94239999999999L291.054,65.94239999999999L291.054,95L283.631,95L283.201,90.81049999999999Q282.041,92.7173,279.976,94.1272Q277.911,95.53710000000001,274.505,95.53710000000001ZM314.38,95.53710000000001Q311.357,95.53710000000001,309.407,94.2778Q307.457,93.01820000000001,306.448,91.4928L306.184,95L298.649,95L298.649,53.6426L307.178,53.1055L307.178,64.3793L306.941,69.9279Q307.758,68.3325,308.945,67.3284Q310.132,66.3238,311.655,65.8513Q313.177,65.3784,314.923,65.3784Q318.806,65.3784,321.344,67.3418Q323.882,69.3048,325.136,72.6751Q326.39,76.0455,326.39,80.2887Q326.39,84.779,325.045,88.2165Q323.699,91.654,321.035,93.5955Q318.371,95.53710000000001,314.38,95.53710000000001ZM312.571,89.96209999999999Q314.08,89.96209999999999,315.24,88.9605Q316.4,87.9584,317.052,85.8154Q317.705,83.67240000000001,317.705,80.2832Q317.705,76.86160000000001,317.16,74.8261Q316.615,72.79050000000001,315.557,71.8854Q314.499,70.9803,312.968,70.9803Q311.319,70.9803,309.992,71.8183Q308.666,72.6562,307.892,74.5873Q307.119,76.518,307.119,79.85900000000001L307.119,87.4482Q307.667,88.15729999999999,308.381,88.72919999999999Q309.095,89.3012,310.121,89.6318Q311.147,89.96209999999999,312.571,89.96209999999999Z" fill="#002C54" fill-opacity="1"/></g></g></svg>