<svg viewBox="29.350836000000005 14.162594594594594 318.96 133.33333333333334" version="1.1" fill="none" xmlns:xlink="http://www.w3.org/1999/xlink" xmlns="http://www.w3.org/2000/svg" style="max-height: 500px" width="318.96" height="133.33333333333334"><g><rect fill-opacity="1" fill="#FFFFFF" rx="6" height="142" width="339" y="9" x="13"/><rect stroke-width="1" fill="none" stroke="#000000" stroke-opacity="0.11999999731779099" fill-opacity="0" rx="5.5" height="141" width="338" y="9.5" x="13.5"/><g><rect fill-opacity="1" fill="#002C54" rx="0" height="160" width="360" y="0" x="0"/></g><g><ellipse fill-opacity="1" fill="#C5001A" ry="62" rx="62" cy="80" cx="284"/></g><g><line stroke-width="4" fill="none" stroke="#FFFFFF" stroke-opacity="1" fill-opacity="0" y2="109" x2="332" y1="109" x1="32"/></g><g><path fill-opacity="1" fill="#FDF6F6" d="M54.5745,100.53710000000001Q48.5589,100.53710000000001,44.237700000000004,98.18180000000001Q39.91691,95.82650000000001,37.62077,91.3123Q35.32462,86.798,35.32462,80.3418Q35.32462,73.9985,37.62077,69.5245Q39.91691,65.0501,44.2218,62.6789Q48.527,60.3076,54.5426,60.3076Q57.7598,60.3076,60.278800000000004,61.0327Q62.797799999999995,61.7578,64.6747,62.9961Q66.5521,64.23400000000001,67.8546,65.7622Q69.1571,67.28999999999999,69.9333,68.9123Q70.7096,70.5341,71.0265,72.0221L64.34989999999999,74.35849999999999L63.6785,74.35849999999999Q63.2115,72.15090000000001,62.1344,70.41069999999999Q61.0576,68.67060000000001,59.2986,67.669Q57.5396,66.6669,55.0206,66.6669Q53.0547,66.6669,51.2499,67.3064Q49.4451,67.9455,48.0407,69.4788Q46.6362,71.012,45.8142,73.6602Q44.992599999999996,76.30799999999999,44.992599999999996,80.3418Q44.992599999999996,85.3852,46.2603,88.4362Q47.5279,91.4868,49.762,92.86189999999999Q51.9964,94.237,54.8754,94.237Q57.4267,94.237,59.2285,93.24080000000001Q61.0308,92.2442,62.1344,90.512Q63.2384,88.7799,63.7054,86.5668L64.3768,86.5668L71.05330000000001,88.9196Q70.7201,90.4285,69.9707,92.0483Q69.2217,93.6676,67.95400000000001,95.1794Q66.68639999999999,96.6913,64.8254,97.9053Q62.9644,99.1192,60.426500000000004,99.8284Q57.8887,100.53710000000001,54.5745,100.53710000000001ZM77.6971,100L77.6971,58.6426L86.3232,58.1055L86.3232,68.9551L86.162,75.5775Q87.376,73.0048,89.5299,71.6918Q91.68379999999999,70.3784,94.8309,70.3784Q99.6598,70.3784,101.9879,73.4563Q104.3163,76.5338,104.3163,81.9422L104.3163,100L95.68520000000001,100L95.68520000000001,82.9736Q95.68520000000001,79.0368,94.6916,77.5085Q93.6979,75.9803,91.5977,75.9803Q90.3087,75.9803,89.32849999999999,76.4637Q88.34819999999999,76.9471,87.6739,77.9005Q87,78.8538,86.6563,80.2533Q86.3127,81.6523,86.3127,83.4784L86.3127,100L77.6971,100ZM124.4688,100.5694Q119.9785,100.5694,116.7559,98.6522Q113.5332,96.7345,111.809,93.313Q110.0848,89.8914,110.0848,85.3797Q110.0848,80.9058,111.8145,77.5329Q113.5441,74.1596,116.7668,72.2692Q119.9894,70.3784,124.4688,70.3784Q128.94819999999999,70.3784,132.15699999999998,72.2692Q135.36700000000002,74.1596,137.096,77.5329Q138.826,80.9058,138.826,85.3797Q138.826,89.8914,137.101,93.313Q135.378,96.7345,132.168,98.6522Q128.9592,100.5694,124.4688,100.5694ZM124.4688,94.96209999999999Q126.3324,94.96209999999999,127.6025,93.8988Q128.8731,92.83500000000001,129.5336,90.7164Q130.1945,88.59729999999999,130.1945,85.3906Q130.1945,82.2003,129.55,80.1165Q128.9054,78.0322,127.6298,77.0063Q126.3542,75.9803,124.4688,75.9803Q121.6436,75.9803,120.1799,78.2928Q118.7163,80.6049,118.7163,85.3906Q118.7163,88.61330000000001,119.3768,90.74029999999999Q120.0377,92.8674,121.3213,93.91470000000001Q122.6049,94.96209999999999,124.4688,94.96209999999999ZM144.76600000000002,100L144.76600000000002,70.94239999999999L152.211,70.94239999999999L152.69400000000002,75.9375Q154.053,72.9675,156.04500000000002,71.8609Q158.038,70.7544,160.283,70.7544Q161.035,70.7544,161.763,70.8295Q162.491,70.9046,163.21,71.0339L162.673,77.334Q162.099,77.2375,161.556,77.1917Q161.014,77.146,160.638,77.146Q158.672,77.146,157.015,77.8875Q155.358,78.6285,154.369,80.0762Q153.381,81.52340000000001,153.381,83.62360000000001L153.381,100L144.76600000000002,100ZM181.499,100.53710000000001Q176.918,100.53710000000001,173.48,98.7055Q170.043,96.87389999999999,168.138,93.4875Q166.235,90.1012,166.235,85.47120000000001Q166.235,80.7824,168.034,77.4041Q169.833,74.0253,173.069,72.2021Q176.305,70.3784,180.57,70.3784Q184.963,70.3784,187.697,72.132Q190.431,73.8856,191.747,77.0142Q193.063,80.1429,193.16,84.3005Q193.16,85.138,193.085,85.8765Q193.009,86.6151,192.939,87.0985Q192.87,87.58189999999999,192.837,87.7002L174.791,87.7002Q175.021,90.0526,176.063,91.6723Q177.106,93.2916,178.768,94.12700000000001Q180.43,94.96209999999999,182.487,94.96209999999999Q184.775,94.96209999999999,186.733,94.2907Q188.691,93.61930000000001,190.394,92.56649999999999L190.839,92.56649999999999L192.692,97.0837Q190.99,98.60900000000001,188.017,99.5732Q185.044,100.53710000000001,181.499,100.53710000000001ZM174.662,83.0164L185.957,83.0164Q185.936,79.2516,184.644,77.5706Q183.352,75.8892,180.892,75.8892Q178.325,75.8892,176.6,77.5677Q174.877,79.2462,174.662,83.0164ZM210.105,100.53710000000001Q205.889,100.53710000000001,202.516,99.0949Q199.143,97.65270000000001,197.36,94.75229999999999L201.361,91.31479999999999L202.06,91.31479999999999Q203.241,93.297,205.314,94.1455Q207.388,94.994,209.187,94.994Q211.094,94.994,212.076,94.17240000000001Q213.06,93.35079999999999,213.06,91.88419999999999Q213.06,91.2829,212.815,90.75919999999999Q212.571,90.2355,211.923,89.7765Q211.276,89.31700000000001,210.063,88.90870000000001L206.271,87.5013Q203.365,86.44890000000001,201.641,85.2324Q199.916,84.0155,199.151,82.4474Q198.386,80.8789,198.386,78.8219Q198.386,74.9224,201.404,72.6506Q204.423,70.3784,209.542,70.3784Q211.969,70.3784,214.128,70.8966Q216.288,71.4149,218.011,72.5617Q219.736,73.7085,220.837,75.58840000000001L216.97,78.8916L216.604,78.8916Q215.675,77.4683,214.169,76.7461Q212.662,76.0235,211.003,76.0235Q209.799,76.0235,208.972,76.3353Q208.145,76.6467,207.723,77.224Q207.302,77.8014,207.302,78.623Q207.302,79.4556,207.86,80.1165Q208.419,80.7769,210.336,81.4911L214.993,83.4784Q217.389,84.39699999999999,218.732,85.62180000000001Q220.074,86.8463,220.616,88.27510000000001Q221.159,89.7034,221.159,91.2611Q221.159,93.9307,219.819,96.02539999999999Q218.479,98.12010000000001,216.005,99.3286Q213.532,100.53710000000001,210.105,100.53710000000001ZM229.384,100.01089999999999L229.384,60.8984L238.493,60.8984L238.493,76.8774L253.118,76.8774L253.118,60.8984L262.255,60.8984L262.255,100.01089999999999L253.118,100.01089999999999L253.118,83.0219L238.493,83.0219L238.493,100.01089999999999L229.384,100.01089999999999ZM280.505,100.53710000000001Q275.55899999999997,100.53710000000001,273.002,97.51339999999999Q270.446,94.4892,270.446,89.0539L270.446,70.94239999999999L279.055,70.94239999999999L279.055,88.0762Q279.055,90.606,279.506,92.1209Q279.957,93.6353,280.892,94.2932Q281.827,94.9512,283.288,94.9512Q284.647,94.9512,285.621,94.5244Q286.596,94.09729999999999,287.297,93.4825Q287.998,92.8674,288.439,92.27109999999999L288.439,70.94239999999999L297.054,70.94239999999999L297.054,100L289.631,100L289.201,95.81049999999999Q288.041,97.7173,285.976,99.1272Q283.911,100.53710000000001,280.505,100.53710000000001ZM320.38,100.53710000000001Q317.357,100.53710000000001,315.407,99.2778Q313.457,98.01820000000001,312.448,96.4928L312.184,100L304.649,100L304.649,58.6426L313.178,58.1055L313.178,69.3793L312.941,74.9279Q313.758,73.3325,314.945,72.3284Q316.132,71.3238,317.655,70.8513Q319.177,70.3784,320.923,70.3784Q324.806,70.3784,327.344,72.3418Q329.882,74.3048,331.136,77.6751Q332.39,81.0455,332.39,85.2887Q332.39,89.779,331.045,93.2165Q329.699,96.654,327.035,98.5955Q324.371,100.53710000000001,320.38,100.53710000000001ZM318.571,94.96209999999999Q320.08,94.96209999999999,321.24,93.9605Q322.4,92.9584,323.052,90.8154Q323.705,88.67240000000001,323.705,85.2832Q323.705,81.86160000000001,323.16,79.8261Q322.615,77.79050000000001,321.557,76.8854Q320.499,75.9803,318.968,75.9803Q317.319,75.9803,315.992,76.8183Q314.666,77.6562,313.892,79.5873Q313.119,81.518,313.119,84.85900000000001L313.119,92.4482Q313.667,93.15729999999999,314.381,93.72919999999999Q315.095,94.3012,316.121,94.6318Q317.147,94.96209999999999,318.571,94.96209999999999Z"/></g></g></svg>