<svg xmlns="http://www.w3.org/2000/svg" xmlns:xlink="http://www.w3.org/1999/xlink" zoomAndPan="magnify" preserveAspectRatio="xMidYMid meet" version="1.0" viewBox="41.95 154.29 291.11 80.53"><defs><g/><clipPath id="a057c2fce7"><path d="M 0.28125 97 L 293 97 L 293 102.441406 L 0.28125 102.441406 Z M 0.28125 97 " clip-rule="nonzero"/></clipPath><clipPath id="ec3cab2c86"><rect x="0" width="294" y="0" height="103"/></clipPath></defs><g transform="matrix(1, 0, 0, 1, 41, 133)"><g clip-path="url(#ec3cab2c86)"><g fill="#002c54" fill-opacity="1"><g transform="translate(2.943479, 74.443428)"><g><path d="M 7.078125 0 L 7.078125 -50.265625 L 26.3125 -50.265625 C 29.71875 -50.265625 32.582031 -49.710938 34.90625 -48.609375 C 37.238281 -47.515625 38.976562 -45.953125 40.125 -43.921875 C 41.269531 -41.898438 41.84375 -39.5 41.84375 -36.71875 C 41.84375 -33.625 41.066406 -31.085938 39.515625 -29.109375 C 37.972656 -27.128906 35.609375 -25.632812 32.421875 -24.625 L 32.421875 -23.890625 C 34.023438 -23.234375 35.328125 -22.222656 36.328125 -20.859375 C 37.328125 -19.492188 38.257812 -17.457031 39.125 -14.75 L 43.984375 0 L 35.828125 0 L 33.5625 -6.953125 C 32.363281 -10.617188 31.457031 -13.367188 30.84375 -15.203125 C 30.289062 -16.867188 29.664062 -18.171875 28.96875 -19.109375 C 28.269531 -20.054688 27.375 -20.734375 26.28125 -21.140625 C 25.195312 -21.554688 23.804688 -21.765625 22.109375 -21.765625 L 14.984375 -21.765625 L 14.984375 0 Z M 25.625 -28.203125 C 31.144531 -28.203125 33.90625 -30.800781 33.90625 -36 C 33.90625 -41.226562 31.144531 -43.84375 25.625 -43.84375 L 14.984375 -43.84375 L 14.984375 -28.203125 Z M 25.625 -28.203125 "/></g></g></g><g fill="#002c54" fill-opacity="1"><g transform="translate(48.740684, 74.443428)"><g><path d="M 36.828125 -17.265625 L 11.59375 -17.265625 C 12.019531 -9.648438 15.546875 -5.84375 22.171875 -5.84375 C 24.628906 -5.84375 26.609375 -6.285156 28.109375 -7.171875 C 29.609375 -8.054688 30.796875 -9.425781 31.671875 -11.28125 L 32.390625 -11.28125 L 37.375 -8.1875 C 36.207031 -5.476562 34.390625 -3.316406 31.921875 -1.703125 C 29.460938 -0.0859375 26.210938 0.71875 22.171875 0.71875 C 18.390625 0.71875 15.125 -0.0078125 12.375 -1.46875 C 9.625 -2.9375 7.503906 -5.140625 6.015625 -8.078125 C 4.523438 -11.015625 3.78125 -14.640625 3.78125 -18.953125 C 3.78125 -23.253906 4.554688 -26.882812 6.109375 -29.84375 C 7.671875 -32.800781 9.804688 -35.007812 12.515625 -36.46875 C 15.222656 -37.925781 18.269531 -38.65625 21.65625 -38.65625 C 26.769531 -38.65625 30.71875 -37.253906 33.5 -34.453125 C 36.289062 -31.660156 37.695312 -27.546875 37.71875 -22.109375 C 37.71875 -20.066406 37.660156 -18.585938 37.546875 -17.671875 Z M 30.390625 -22.65625 C 30.304688 -26.125 29.523438 -28.644531 28.046875 -30.21875 C 26.566406 -31.800781 24.4375 -32.59375 21.65625 -32.59375 C 18.863281 -32.59375 16.625 -31.800781 14.9375 -30.21875 C 13.25 -28.644531 12.191406 -26.125 11.765625 -22.65625 Z M 30.390625 -22.65625 "/></g></g></g><g fill="#002c54" fill-opacity="1"><g transform="translate(89.139909, 74.443428)"><g><path d="M 19.59375 16.09375 C 13.476562 16.09375 8.988281 15.132812 6.125 13.21875 C 3.257812 11.300781 1.828125 8.707031 1.828125 5.4375 C 1.828125 3.375 2.46875 1.695312 3.75 0.40625 C 5.03125 -0.875 6.875 -1.753906 9.28125 -2.234375 L 9.28125 -2.953125 C 8.070312 -3.660156 7.179688 -4.476562 6.609375 -5.40625 C 6.035156 -6.34375 5.75 -7.429688 5.75 -8.671875 C 5.75 -11.617188 7.660156 -13.585938 11.484375 -14.578125 L 11.484375 -15.296875 C 7.359375 -17.566406 5.296875 -21.109375 5.296875 -25.921875 C 5.296875 -28.421875 5.867188 -30.632812 7.015625 -32.5625 C 8.160156 -34.488281 9.8125 -35.984375 11.96875 -37.046875 C 14.125 -38.117188 16.679688 -38.65625 19.640625 -38.65625 C 22.796875 -38.65625 25.382812 -38.035156 27.40625 -36.796875 C 28.738281 -38.441406 29.503906 -40.46875 29.703125 -42.875 L 30.4375 -43.328125 L 36.140625 -41.953125 C 35.929688 -40.097656 35.378906 -38.519531 34.484375 -37.21875 C 33.585938 -35.925781 32.269531 -34.832031 30.53125 -33.9375 L 30.53125 -33.1875 C 32.800781 -31.320312 33.9375 -28.695312 33.9375 -25.3125 C 33.9375 -22.945312 33.359375 -20.816406 32.203125 -18.921875 C 31.046875 -17.035156 29.382812 -15.550781 27.21875 -14.46875 C 25.050781 -13.394531 22.523438 -12.859375 19.640625 -12.859375 C 19.378906 -12.859375 18.835938 -12.878906 18.015625 -12.921875 C 17.097656 -12.972656 16.445312 -13 16.0625 -13 C 15.03125 -13 14.210938 -12.722656 13.609375 -12.171875 C 13.015625 -11.617188 12.71875 -10.921875 12.71875 -10.078125 C 12.71875 -9.085938 13.066406 -8.335938 13.765625 -7.828125 C 14.460938 -7.328125 15.570312 -7.046875 17.09375 -6.984375 L 25.828125 -6.671875 C 33.828125 -6.421875 37.828125 -2.984375 37.828125 3.640625 C 37.828125 6.003906 37.207031 8.117188 35.96875 9.984375 C 34.726562 11.859375 32.75 13.34375 30.03125 14.4375 C 27.320312 15.539062 23.84375 16.09375 19.59375 16.09375 Z M 19.640625 -18.609375 C 21.878906 -18.609375 23.625 -19.222656 24.875 -20.453125 C 26.125 -21.691406 26.75 -23.445312 26.75 -25.71875 C 26.75 -28.007812 26.128906 -29.78125 24.890625 -31.03125 C 23.648438 -32.28125 21.898438 -32.90625 19.640625 -32.90625 C 17.347656 -32.90625 15.59375 -32.285156 14.375 -31.046875 C 13.15625 -29.804688 12.546875 -28.03125 12.546875 -25.71875 C 12.546875 -23.445312 13.15625 -21.691406 14.375 -20.453125 C 15.59375 -19.222656 17.347656 -18.609375 19.640625 -18.609375 Z M 19.59375 10.25 C 23.289062 10.25 25.976562 9.691406 27.65625 8.578125 C 29.34375 7.460938 30.1875 6.054688 30.1875 4.359375 C 30.1875 2.921875 29.753906 1.878906 28.890625 1.234375 C 28.035156 0.597656 26.585938 0.234375 24.546875 0.140625 L 16.578125 -0.28125 L 15.296875 -0.3125 C 13.253906 -0.289062 11.738281 0.132812 10.75 0.96875 C 9.769531 1.8125 9.28125 2.96875 9.28125 4.4375 C 9.28125 6.34375 10.140625 7.785156 11.859375 8.765625 C 13.578125 9.753906 16.15625 10.25 19.59375 10.25 Z M 19.59375 10.25 "/></g></g></g><g fill="#002c54" fill-opacity="1"><g transform="translate(128.301409, 74.443428)"><g><path d="M 6.046875 0 L 6.046875 -37.921875 L 13.609375 -37.921875 L 13.609375 0 Z M 9.828125 -43.90625 C 8.429688 -43.90625 7.28125 -44.34375 6.375 -45.21875 C 5.46875 -46.09375 5.015625 -47.203125 5.015625 -48.546875 C 5.015625 -49.878906 5.46875 -50.976562 6.375 -51.84375 C 7.28125 -52.71875 8.429688 -53.15625 9.828125 -53.15625 C 11.222656 -53.15625 12.367188 -52.71875 13.265625 -51.84375 C 14.160156 -50.976562 14.609375 -49.878906 14.609375 -48.546875 C 14.609375 -47.203125 14.160156 -46.09375 13.265625 -45.21875 C 12.367188 -44.34375 11.222656 -43.90625 9.828125 -43.90625 Z M 9.828125 -43.90625 "/></g></g></g><g fill="#002c54" fill-opacity="1"><g transform="translate(147.933737, 74.443428)"><g><path d="M 17.53125 0.71875 C 15.0625 0.71875 12.773438 0.410156 10.671875 -0.203125 C 8.578125 -0.828125 6.800781 -1.679688 5.34375 -2.765625 C 3.882812 -3.859375 2.828125 -5.09375 2.171875 -6.46875 L 6.46875 -11.03125 L 7.1875 -11.03125 C 9.6875 -7.4375 13.148438 -5.640625 17.578125 -5.640625 C 19.890625 -5.640625 21.644531 -6.078125 22.84375 -6.953125 C 24.050781 -7.835938 24.65625 -9.070312 24.65625 -10.65625 C 24.65625 -11.894531 24.257812 -12.921875 23.46875 -13.734375 C 22.675781 -14.546875 21.421875 -15.160156 19.703125 -15.578125 L 14 -16.984375 C 10.414062 -17.835938 7.789062 -19.171875 6.125 -20.984375 C 4.46875 -22.804688 3.640625 -25.082031 3.640625 -27.8125 C 3.640625 -30.039062 4.207031 -31.96875 5.34375 -33.59375 C 6.476562 -35.21875 8.085938 -36.46875 10.171875 -37.34375 C 12.265625 -38.21875 14.71875 -38.65625 17.53125 -38.65625 C 21 -38.65625 23.789062 -38.164062 25.90625 -37.1875 C 28.03125 -36.21875 29.6875 -34.882812 30.875 -33.1875 L 26.75 -28.890625 L 26.0625 -28.890625 C 24.9375 -30.191406 23.679688 -31.128906 22.296875 -31.703125 C 20.910156 -32.273438 19.320312 -32.5625 17.53125 -32.5625 C 15.3125 -32.5625 13.640625 -32.1875 12.515625 -31.4375 C 11.390625 -30.695312 10.828125 -29.617188 10.828125 -28.203125 C 10.828125 -26.941406 11.238281 -25.921875 12.0625 -25.140625 C 12.894531 -24.359375 14.332031 -23.726562 16.375 -23.25 L 21.875 -21.96875 C 25.445312 -21.164062 28.039062 -19.859375 29.65625 -18.046875 C 31.269531 -16.242188 32.078125 -13.882812 32.078125 -10.96875 C 32.078125 -8.65625 31.515625 -6.617188 30.390625 -4.859375 C 29.273438 -3.109375 27.625 -1.738281 25.4375 -0.75 C 23.257812 0.226562 20.625 0.71875 17.53125 0.71875 Z M 17.53125 0.71875 "/></g></g></g><g fill="#002c54" fill-opacity="1"><g transform="translate(182.969355, 74.443428)"><g><path d="M 25.921875 -7.53125 L 28.0625 -2 C 27.09375 -1.125 25.851562 -0.453125 24.34375 0.015625 C 22.832031 0.484375 21.160156 0.71875 19.328125 0.71875 C 15.515625 0.71875 12.613281 -0.285156 10.625 -2.296875 C 8.632812 -4.316406 7.640625 -7.332031 7.640625 -11.34375 L 7.640625 -31.875 L 1.4375 -31.875 L 1.4375 -37.96875 L 7.640625 -37.96875 L 7.640625 -45.671875 L 15.203125 -46.90625 L 15.203125 -37.96875 L 26.6875 -37.96875 L 26.6875 -31.875 L 15.203125 -31.875 L 15.203125 -11.96875 C 15.203125 -9.851562 15.640625 -8.328125 16.515625 -7.390625 C 17.398438 -6.453125 18.671875 -5.984375 20.328125 -5.984375 C 22.179688 -5.984375 23.804688 -6.5 25.203125 -7.53125 Z M 25.921875 -7.53125 "/></g></g></g><g fill="#002c54" fill-opacity="1"><g transform="translate(211.712975, 74.443428)"><g><path d="M 36.828125 -17.265625 L 11.59375 -17.265625 C 12.019531 -9.648438 15.546875 -5.84375 22.171875 -5.84375 C 24.628906 -5.84375 26.609375 -6.285156 28.109375 -7.171875 C 29.609375 -8.054688 30.796875 -9.425781 31.671875 -11.28125 L 32.390625 -11.28125 L 37.375 -8.1875 C 36.207031 -5.476562 34.390625 -3.316406 31.921875 -1.703125 C 29.460938 -0.0859375 26.210938 0.71875 22.171875 0.71875 C 18.390625 0.71875 15.125 -0.0078125 12.375 -1.46875 C 9.625 -2.9375 7.503906 -5.140625 6.015625 -8.078125 C 4.523438 -11.015625 3.78125 -14.640625 3.78125 -18.953125 C 3.78125 -23.253906 4.554688 -26.882812 6.109375 -29.84375 C 7.671875 -32.800781 9.804688 -35.007812 12.515625 -36.46875 C 15.222656 -37.925781 18.269531 -38.65625 21.65625 -38.65625 C 26.769531 -38.65625 30.71875 -37.253906 33.5 -34.453125 C 36.289062 -31.660156 37.695312 -27.546875 37.71875 -22.109375 C 37.71875 -20.066406 37.660156 -18.585938 37.546875 -17.671875 Z M 30.390625 -22.65625 C 30.304688 -26.125 29.523438 -28.644531 28.046875 -30.21875 C 26.566406 -31.800781 24.4375 -32.59375 21.65625 -32.59375 C 18.863281 -32.59375 16.625 -31.800781 14.9375 -30.21875 C 13.25 -28.644531 12.191406 -26.125 11.765625 -22.65625 Z M 30.390625 -22.65625 "/></g></g></g><g fill="#002c54" fill-opacity="1"><g transform="translate(252.5592, 74.443428)"><g><path d="M 6.046875 0 L 6.046875 -37.921875 L 13.34375 -37.921875 L 13.34375 -32.15625 L 14.0625 -31.984375 C 14.976562 -34.160156 16.226562 -35.75 17.8125 -36.75 C 19.394531 -37.757812 21.304688 -38.265625 23.546875 -38.265625 C 25.960938 -38.265625 27.753906 -37.851562 28.921875 -37.03125 L 27.40625 -30.53125 L 26.6875 -30.390625 C 26.039062 -30.691406 25.382812 -30.914062 24.71875 -31.0625 C 24.050781 -31.21875 23.285156 -31.296875 22.421875 -31.296875 C 19.578125 -31.296875 17.394531 -30.257812 15.875 -28.1875 C 14.363281 -26.125 13.609375 -22.789062 13.609375 -18.1875 L 13.609375 0 Z M 6.046875 0 "/></g></g></g><g clip-path="url(#a057c2fce7)"><path stroke-linecap="butt" transform="matrix(1.268382, 0.000000000000000319, -0.000000000000000319, 1.268382, 2.943479, 97.274302)" fill="none" stroke-linejoin="miter" d="M 0.00144523 2.00113 L 226.360137 2.00113 " stroke="#002c54" stroke-width="4" stroke-opacity="1" stroke-miterlimit="4"/></g></g></g></svg>