<svg xmlns="http://www.w3.org/2000/svg" xmlns:xlink="http://www.w3.org/1999/xlink" zoomAndPan="magnify" preserveAspectRatio="xMidYMid meet" version="1.0" viewBox="28.02 159.82 318.96 61.76"><defs><g/><clipPath id="100a30e14b"><path d="M 1 70 L 322 70 L 322 74.71875 L 1 74.71875 Z M 1 70 " clip-rule="nonzero"/></clipPath><clipPath id="b4dcdc274f"><rect x="0" width="324" y="0" height="75"/></clipPath></defs><g transform="matrix(1, 0, 0, 1, 26, 148)"><g clip-path="url(#b4dcdc274f)"><g fill="#002c54" fill-opacity="1"><g transform="translate(3.01807, 43.254753)"><g><path d="M 4.1875 0 L 4.1875 -29.71875 L 15.546875 -29.71875 C 17.566406 -29.71875 19.265625 -29.394531 20.640625 -28.75 C 22.023438 -28.101562 23.054688 -27.175781 23.734375 -25.96875 C 24.410156 -24.769531 24.75 -23.351562 24.75 -21.71875 C 24.75 -19.882812 24.289062 -18.378906 23.375 -17.203125 C 22.457031 -16.035156 21.054688 -15.15625 19.171875 -14.5625 L 19.171875 -14.125 C 20.117188 -13.738281 20.882812 -13.140625 21.46875 -12.328125 C 22.0625 -11.523438 22.617188 -10.320312 23.140625 -8.71875 L 26 0 L 21.1875 0 L 19.84375 -4.109375 C 19.132812 -6.273438 18.597656 -7.898438 18.234375 -8.984375 C 17.910156 -9.972656 17.539062 -10.742188 17.125 -11.296875 C 16.71875 -11.859375 16.191406 -12.257812 15.546875 -12.5 C 14.898438 -12.75 14.078125 -12.875 13.078125 -12.875 L 8.859375 -12.875 L 8.859375 0 Z M 15.140625 -16.671875 C 18.410156 -16.671875 20.046875 -18.207031 20.046875 -21.28125 C 20.046875 -24.375 18.410156 -25.921875 15.140625 -25.921875 L 8.859375 -25.921875 L 8.859375 -16.671875 Z M 15.140625 -16.671875 "/></g></g></g><g fill="#002c54" fill-opacity="1"><g transform="translate(30.09836, 43.254753)"><g><path d="M 21.78125 -10.203125 L 6.859375 -10.203125 C 7.109375 -5.703125 9.191406 -3.453125 13.109375 -3.453125 C 14.566406 -3.453125 15.738281 -3.710938 16.625 -4.234375 C 17.507812 -4.753906 18.207031 -5.566406 18.71875 -6.671875 L 19.15625 -6.671875 L 22.09375 -4.84375 C 21.40625 -3.238281 20.332031 -1.957031 18.875 -1 C 17.414062 -0.0507812 15.492188 0.421875 13.109375 0.421875 C 10.878906 0.421875 8.945312 -0.0078125 7.3125 -0.875 C 5.6875 -1.738281 4.429688 -3.035156 3.546875 -4.765625 C 2.671875 -6.503906 2.234375 -8.648438 2.234375 -11.203125 C 2.234375 -13.753906 2.691406 -15.898438 3.609375 -17.640625 C 4.535156 -19.390625 5.796875 -20.695312 7.390625 -21.5625 C 8.992188 -22.425781 10.800781 -22.859375 12.8125 -22.859375 C 15.832031 -22.859375 18.164062 -22.03125 19.8125 -20.375 C 21.457031 -18.71875 22.285156 -16.285156 22.296875 -13.078125 C 22.296875 -11.867188 22.265625 -10.992188 22.203125 -10.453125 Z M 17.96875 -13.40625 C 17.914062 -15.445312 17.453125 -16.9375 16.578125 -17.875 C 15.703125 -18.8125 14.445312 -19.28125 12.8125 -19.28125 C 11.15625 -19.28125 9.828125 -18.8125 8.828125 -17.875 C 7.835938 -16.9375 7.210938 -15.445312 6.953125 -13.40625 Z M 17.96875 -13.40625 "/></g></g></g><g fill="#002c54" fill-opacity="1"><g transform="translate(54.251077, 43.254753)"><g><path d="M 10.375 0.421875 C 8.90625 0.421875 7.550781 0.238281 6.3125 -0.125 C 5.070312 -0.488281 4.019531 -0.992188 3.15625 -1.640625 C 2.300781 -2.285156 1.675781 -3.015625 1.28125 -3.828125 L 3.828125 -6.53125 L 4.25 -6.53125 C 5.726562 -4.394531 7.773438 -3.328125 10.390625 -3.328125 C 11.753906 -3.328125 12.789062 -3.585938 13.5 -4.109375 C 14.21875 -4.640625 14.578125 -5.367188 14.578125 -6.296875 C 14.578125 -7.035156 14.34375 -7.644531 13.875 -8.125 C 13.40625 -8.601562 12.664062 -8.960938 11.65625 -9.203125 L 8.28125 -10.046875 C 6.164062 -10.546875 4.613281 -11.332031 3.625 -12.40625 C 2.644531 -13.488281 2.15625 -14.835938 2.15625 -16.453125 C 2.15625 -17.765625 2.488281 -18.898438 3.15625 -19.859375 C 3.832031 -20.828125 4.785156 -21.566406 6.015625 -22.078125 C 7.253906 -22.597656 8.707031 -22.859375 10.375 -22.859375 C 12.414062 -22.859375 14.0625 -22.566406 15.3125 -21.984375 C 16.570312 -21.410156 17.554688 -20.625 18.265625 -19.625 L 15.8125 -17.078125 L 15.40625 -17.078125 C 14.75 -17.847656 14.007812 -18.398438 13.1875 -18.734375 C 12.363281 -19.078125 11.425781 -19.25 10.375 -19.25 C 9.050781 -19.25 8.054688 -19.03125 7.390625 -18.59375 C 6.734375 -18.15625 6.40625 -17.515625 6.40625 -16.671875 C 6.40625 -15.921875 6.648438 -15.316406 7.140625 -14.859375 C 7.628906 -14.398438 8.472656 -14.03125 9.671875 -13.75 L 12.9375 -13 C 15.050781 -12.519531 16.582031 -11.742188 17.53125 -10.671875 C 18.488281 -9.597656 18.96875 -8.203125 18.96875 -6.484375 C 18.96875 -5.117188 18.632812 -3.914062 17.96875 -2.875 C 17.3125 -1.84375 16.335938 -1.035156 15.046875 -0.453125 C 13.753906 0.128906 12.195312 0.421875 10.375 0.421875 Z M 10.375 0.421875 "/></g></g></g><g fill="#002c54" fill-opacity="1"><g transform="translate(74.967942, 43.254753)"><g><path d="M 21.78125 -10.203125 L 6.859375 -10.203125 C 7.109375 -5.703125 9.191406 -3.453125 13.109375 -3.453125 C 14.566406 -3.453125 15.738281 -3.710938 16.625 -4.234375 C 17.507812 -4.753906 18.207031 -5.566406 18.71875 -6.671875 L 19.15625 -6.671875 L 22.09375 -4.84375 C 21.40625 -3.238281 20.332031 -1.957031 18.875 -1 C 17.414062 -0.0507812 15.492188 0.421875 13.109375 0.421875 C 10.878906 0.421875 8.945312 -0.0078125 7.3125 -0.875 C 5.6875 -1.738281 4.429688 -3.035156 3.546875 -4.765625 C 2.671875 -6.503906 2.234375 -8.648438 2.234375 -11.203125 C 2.234375 -13.753906 2.691406 -15.898438 3.609375 -17.640625 C 4.535156 -19.390625 5.796875 -20.695312 7.390625 -21.5625 C 8.992188 -22.425781 10.800781 -22.859375 12.8125 -22.859375 C 15.832031 -22.859375 18.164062 -22.03125 19.8125 -20.375 C 21.457031 -18.71875 22.285156 -16.285156 22.296875 -13.078125 C 22.296875 -11.867188 22.265625 -10.992188 22.203125 -10.453125 Z M 17.96875 -13.40625 C 17.914062 -15.445312 17.453125 -16.9375 16.578125 -17.875 C 15.703125 -18.8125 14.445312 -19.28125 12.8125 -19.28125 C 11.15625 -19.28125 9.828125 -18.8125 8.828125 -17.875 C 7.835938 -16.9375 7.210938 -15.445312 6.953125 -13.40625 Z M 17.96875 -13.40625 "/></g></g></g><g fill="#002c54" fill-opacity="1"><g transform="translate(99.12066, 43.254753)"><g><path d="M 15.328125 -4.453125 L 16.59375 -1.171875 C 16.019531 -0.660156 15.285156 -0.269531 14.390625 0 C 13.492188 0.28125 12.503906 0.421875 11.421875 0.421875 C 9.171875 0.421875 7.457031 -0.171875 6.28125 -1.359375 C 5.101562 -2.554688 4.515625 -4.335938 4.515625 -6.703125 L 4.515625 -18.84375 L 0.859375 -18.84375 L 0.859375 -22.453125 L 4.515625 -22.453125 L 4.515625 -27 L 8.984375 -27.734375 L 8.984375 -22.453125 L 15.78125 -22.453125 L 15.78125 -18.84375 L 8.984375 -18.84375 L 8.984375 -7.078125 C 8.984375 -5.828125 9.242188 -4.921875 9.765625 -4.359375 C 10.285156 -3.804688 11.035156 -3.53125 12.015625 -3.53125 C 13.109375 -3.53125 14.070312 -3.835938 14.90625 -4.453125 Z M 15.328125 -4.453125 "/></g></g></g><g fill="#002c54" fill-opacity="1"><g transform="translate(116.381328, 43.254753)"><g/></g></g><g fill="#002c54" fill-opacity="1"><g transform="translate(126.404314, 43.254753)"><g><path d="M 3.578125 9.09375 L 3.578125 -22.421875 L 8.046875 -22.421875 L 8.046875 -19.296875 L 8.484375 -19.21875 C 9.242188 -20.445312 10.210938 -21.359375 11.390625 -21.953125 C 12.566406 -22.554688 13.914062 -22.859375 15.4375 -22.859375 C 17.28125 -22.859375 18.882812 -22.429688 20.25 -21.578125 C 21.613281 -20.722656 22.675781 -19.421875 23.4375 -17.671875 C 24.195312 -15.929688 24.578125 -13.773438 24.578125 -11.203125 C 24.578125 -8.640625 24.171875 -6.488281 23.359375 -4.75 C 22.554688 -3.019531 21.445312 -1.722656 20.03125 -0.859375 C 18.613281 -0.00390625 16.976562 0.421875 15.125 0.421875 C 13.675781 0.421875 12.398438 0.171875 11.296875 -0.328125 C 10.203125 -0.828125 9.265625 -1.625 8.484375 -2.71875 L 8.046875 -2.640625 L 8.046875 9.09375 Z M 13.96875 -3.453125 C 15.90625 -3.453125 17.382812 -4.070312 18.40625 -5.3125 C 19.4375 -6.550781 19.953125 -8.515625 19.953125 -11.203125 C 19.953125 -13.898438 19.4375 -15.867188 18.40625 -17.109375 C 17.382812 -18.359375 15.90625 -18.984375 13.96875 -18.984375 C 12.164062 -18.984375 10.722656 -18.335938 9.640625 -17.046875 C 8.554688 -15.765625 8.015625 -13.816406 8.015625 -11.203125 C 8.015625 -8.597656 8.554688 -6.65625 9.640625 -5.375 C 10.722656 -4.09375 12.164062 -3.453125 13.96875 -3.453125 Z M 13.96875 -3.453125 "/></g></g></g><g fill="#002c54" fill-opacity="1"><g transform="translate(153.220351, 43.254753)"><g><path d="M 9 0.421875 C 6.8125 0.421875 5.09375 -0.160156 3.84375 -1.328125 C 2.59375 -2.503906 1.96875 -4.171875 1.96875 -6.328125 C 1.96875 -7.648438 2.242188 -8.765625 2.796875 -9.671875 C 3.359375 -10.585938 4.226562 -11.332031 5.40625 -11.90625 C 6.582031 -12.476562 8.113281 -12.921875 10 -13.234375 C 11.476562 -13.484375 12.601562 -13.753906 13.375 -14.046875 C 14.144531 -14.347656 14.664062 -14.679688 14.9375 -15.046875 C 15.207031 -15.421875 15.34375 -15.894531 15.34375 -16.46875 C 15.34375 -17.332031 15.039062 -17.992188 14.4375 -18.453125 C 13.84375 -18.921875 12.867188 -19.15625 11.515625 -19.15625 C 8.953125 -19.15625 6.773438 -18.085938 4.984375 -15.953125 L 4.578125 -15.953125 L 2.578125 -18.890625 C 3.617188 -20.117188 4.914062 -21.085938 6.46875 -21.796875 C 8.019531 -22.503906 9.75 -22.859375 11.65625 -22.859375 C 14.457031 -22.859375 16.503906 -22.253906 17.796875 -21.046875 C 19.097656 -19.835938 19.75 -18.140625 19.75 -15.953125 L 19.75 -5.140625 C 19.75 -4.015625 20.226562 -3.453125 21.1875 -3.453125 C 21.539062 -3.453125 21.878906 -3.515625 22.203125 -3.640625 L 22.484375 -3.5625 L 22.875 -0.453125 C 22.601562 -0.253906 22.226562 -0.101562 21.75 0 C 21.269531 0.101562 20.753906 0.15625 20.203125 0.15625 C 18.921875 0.15625 17.9375 -0.101562 17.25 -0.625 C 16.5625 -1.15625 16.09375 -1.960938 15.84375 -3.046875 L 15.40625 -3.09375 C 14.8125 -1.914062 13.988281 -1.035156 12.9375 -0.453125 C 11.882812 0.128906 10.570312 0.421875 9 0.421875 Z M 10.265625 -3.015625 C 11.304688 -3.015625 12.21875 -3.253906 13 -3.734375 C 13.789062 -4.210938 14.394531 -4.898438 14.8125 -5.796875 C 15.238281 -6.691406 15.453125 -7.742188 15.453125 -8.953125 L 15.453125 -11.515625 L 15.0625 -11.59375 C 14.644531 -11.28125 14.117188 -11.015625 13.484375 -10.796875 C 12.859375 -10.585938 11.960938 -10.390625 10.796875 -10.203125 C 9.222656 -9.972656 8.109375 -9.5625 7.453125 -8.96875 C 6.796875 -8.382812 6.46875 -7.554688 6.46875 -6.484375 C 6.46875 -5.347656 6.796875 -4.484375 7.453125 -3.890625 C 8.117188 -3.304688 9.054688 -3.015625 10.265625 -3.015625 Z M 10.265625 -3.015625 "/></g></g></g><g fill="#002c54" fill-opacity="1"><g transform="translate(176.641167, 43.254753)"><g><path d="M 10.375 0.421875 C 8.90625 0.421875 7.550781 0.238281 6.3125 -0.125 C 5.070312 -0.488281 4.019531 -0.992188 3.15625 -1.640625 C 2.300781 -2.285156 1.675781 -3.015625 1.28125 -3.828125 L 3.828125 -6.53125 L 4.25 -6.53125 C 5.726562 -4.394531 7.773438 -3.328125 10.390625 -3.328125 C 11.753906 -3.328125 12.789062 -3.585938 13.5 -4.109375 C 14.21875 -4.640625 14.578125 -5.367188 14.578125 -6.296875 C 14.578125 -7.035156 14.34375 -7.644531 13.875 -8.125 C 13.40625 -8.601562 12.664062 -8.960938 11.65625 -9.203125 L 8.28125 -10.046875 C 6.164062 -10.546875 4.613281 -11.332031 3.625 -12.40625 C 2.644531 -13.488281 2.15625 -14.835938 2.15625 -16.453125 C 2.15625 -17.765625 2.488281 -18.898438 3.15625 -19.859375 C 3.832031 -20.828125 4.785156 -21.566406 6.015625 -22.078125 C 7.253906 -22.597656 8.707031 -22.859375 10.375 -22.859375 C 12.414062 -22.859375 14.0625 -22.566406 15.3125 -21.984375 C 16.570312 -21.410156 17.554688 -20.625 18.265625 -19.625 L 15.8125 -17.078125 L 15.40625 -17.078125 C 14.75 -17.847656 14.007812 -18.398438 13.1875 -18.734375 C 12.363281 -19.078125 11.425781 -19.25 10.375 -19.25 C 9.050781 -19.25 8.054688 -19.03125 7.390625 -18.59375 C 6.734375 -18.15625 6.40625 -17.515625 6.40625 -16.671875 C 6.40625 -15.921875 6.648438 -15.316406 7.140625 -14.859375 C 7.628906 -14.398438 8.472656 -14.03125 9.671875 -13.75 L 12.9375 -13 C 15.050781 -12.519531 16.582031 -11.742188 17.53125 -10.671875 C 18.488281 -9.597656 18.96875 -8.203125 18.96875 -6.484375 C 18.96875 -5.117188 18.632812 -3.914062 17.96875 -2.875 C 17.3125 -1.84375 16.335938 -1.035156 15.046875 -0.453125 C 13.753906 0.128906 12.195312 0.421875 10.375 0.421875 Z M 10.375 0.421875 "/></g></g></g><g fill="#002c54" fill-opacity="1"><g transform="translate(197.358033, 43.254753)"><g><path d="M 10.375 0.421875 C 8.90625 0.421875 7.550781 0.238281 6.3125 -0.125 C 5.070312 -0.488281 4.019531 -0.992188 3.15625 -1.640625 C 2.300781 -2.285156 1.675781 -3.015625 1.28125 -3.828125 L 3.828125 -6.53125 L 4.25 -6.53125 C 5.726562 -4.394531 7.773438 -3.328125 10.390625 -3.328125 C 11.753906 -3.328125 12.789062 -3.585938 13.5 -4.109375 C 14.21875 -4.640625 14.578125 -5.367188 14.578125 -6.296875 C 14.578125 -7.035156 14.34375 -7.644531 13.875 -8.125 C 13.40625 -8.601562 12.664062 -8.960938 11.65625 -9.203125 L 8.28125 -10.046875 C 6.164062 -10.546875 4.613281 -11.332031 3.625 -12.40625 C 2.644531 -13.488281 2.15625 -14.835938 2.15625 -16.453125 C 2.15625 -17.765625 2.488281 -18.898438 3.15625 -19.859375 C 3.832031 -20.828125 4.785156 -21.566406 6.015625 -22.078125 C 7.253906 -22.597656 8.707031 -22.859375 10.375 -22.859375 C 12.414062 -22.859375 14.0625 -22.566406 15.3125 -21.984375 C 16.570312 -21.410156 17.554688 -20.625 18.265625 -19.625 L 15.8125 -17.078125 L 15.40625 -17.078125 C 14.75 -17.847656 14.007812 -18.398438 13.1875 -18.734375 C 12.363281 -19.078125 11.425781 -19.25 10.375 -19.25 C 9.050781 -19.25 8.054688 -19.03125 7.390625 -18.59375 C 6.734375 -18.15625 6.40625 -17.515625 6.40625 -16.671875 C 6.40625 -15.921875 6.648438 -15.316406 7.140625 -14.859375 C 7.628906 -14.398438 8.472656 -14.03125 9.671875 -13.75 L 12.9375 -13 C 15.050781 -12.519531 16.582031 -11.742188 17.53125 -10.671875 C 18.488281 -9.597656 18.96875 -8.203125 18.96875 -6.484375 C 18.96875 -5.117188 18.632812 -3.914062 17.96875 -2.875 C 17.3125 -1.84375 16.335938 -1.035156 15.046875 -0.453125 C 13.753906 0.128906 12.195312 0.421875 10.375 0.421875 Z M 10.375 0.421875 "/></g></g></g><g fill="#002c54" fill-opacity="1"><g transform="translate(217.810586, 43.254753)"><g><path d="M 11.59375 0 L 6.546875 0 L 1.140625 -22.421875 L 5.390625 -22.421875 L 9.15625 -5.578125 L 9.578125 -5.578125 L 14.328125 -22.421875 L 18.5 -22.421875 L 23.40625 -5.578125 L 23.828125 -5.578125 L 27.515625 -22.421875 L 31.640625 -22.421875 L 26.296875 0 L 21.234375 0 L 16.53125 -16.34375 L 16.109375 -16.34375 Z M 11.59375 0 "/></g></g></g><g fill="#002c54" fill-opacity="1"><g transform="translate(250.400505, 43.254753)"><g><path d="M 12.953125 0.421875 C 10.796875 0.421875 8.910156 -0.0195312 7.296875 -0.90625 C 5.679688 -1.800781 4.429688 -3.125 3.546875 -4.875 C 2.671875 -6.625 2.234375 -8.734375 2.234375 -11.203125 C 2.234375 -13.679688 2.671875 -15.789062 3.546875 -17.53125 C 4.429688 -19.28125 5.679688 -20.601562 7.296875 -21.5 C 8.910156 -22.40625 10.796875 -22.859375 12.953125 -22.859375 C 15.109375 -22.859375 16.992188 -22.40625 18.609375 -21.5 C 20.222656 -20.601562 21.472656 -19.28125 22.359375 -17.53125 C 23.242188 -15.789062 23.6875 -13.679688 23.6875 -11.203125 C 23.6875 -8.734375 23.242188 -6.625 22.359375 -4.875 C 21.472656 -3.125 20.222656 -1.800781 18.609375 -0.90625 C 16.992188 -0.0195312 15.109375 0.421875 12.953125 0.421875 Z M 12.953125 -3.453125 C 17.003906 -3.453125 19.03125 -6.035156 19.03125 -11.203125 C 19.03125 -16.390625 17.003906 -18.984375 12.953125 -18.984375 C 10.984375 -18.984375 9.476562 -18.347656 8.4375 -17.078125 C 7.394531 -15.816406 6.875 -13.859375 6.875 -11.203125 C 6.875 -6.035156 8.898438 -3.453125 12.953125 -3.453125 Z M 12.953125 -3.453125 "/></g></g></g><g fill="#002c54" fill-opacity="1"><g transform="translate(276.301651, 43.254753)"><g><path d="M 3.578125 0 L 3.578125 -22.421875 L 7.890625 -22.421875 L 7.890625 -19.015625 L 8.3125 -18.90625 C 8.851562 -20.195312 9.59375 -21.140625 10.53125 -21.734375 C 11.46875 -22.328125 12.597656 -22.625 13.921875 -22.625 C 15.347656 -22.625 16.40625 -22.378906 17.09375 -21.890625 L 16.203125 -18.0625 L 15.78125 -17.96875 C 15.394531 -18.144531 15.003906 -18.273438 14.609375 -18.359375 C 14.222656 -18.453125 13.769531 -18.5 13.25 -18.5 C 11.570312 -18.5 10.285156 -17.890625 9.390625 -16.671875 C 8.492188 -15.453125 8.046875 -13.476562 8.046875 -10.75 L 8.046875 0 Z M 3.578125 0 "/></g></g></g><g fill="#002c54" fill-opacity="1"><g transform="translate(293.175994, 43.254753)"><g><path d="M 11.359375 0.421875 C 9.578125 0.421875 7.992188 -0.00390625 6.609375 -0.859375 C 5.234375 -1.722656 4.160156 -3.019531 3.390625 -4.75 C 2.617188 -6.488281 2.234375 -8.640625 2.234375 -11.203125 C 2.234375 -13.765625 2.632812 -15.914062 3.4375 -17.65625 C 4.25 -19.394531 5.363281 -20.695312 6.78125 -21.5625 C 8.195312 -22.425781 9.832031 -22.859375 11.6875 -22.859375 C 13.132812 -22.859375 14.414062 -22.59375 15.53125 -22.0625 C 16.644531 -21.539062 17.585938 -20.707031 18.359375 -19.5625 L 18.78125 -19.65625 L 18.78125 -31.4375 L 23.265625 -31.4375 L 23.265625 0 L 18.78125 0 L 18.78125 -3.09375 L 18.359375 -3.171875 C 17.671875 -2.085938 16.742188 -1.21875 15.578125 -0.5625 C 14.410156 0.09375 13.003906 0.421875 11.359375 0.421875 Z M 12.78125 -3.453125 C 14.625 -3.453125 16.085938 -4.09375 17.171875 -5.375 C 18.265625 -6.65625 18.8125 -8.597656 18.8125 -11.203125 C 18.8125 -13.828125 18.265625 -15.78125 17.171875 -17.0625 C 16.085938 -18.34375 14.625 -18.984375 12.78125 -18.984375 C 8.84375 -18.984375 6.875 -16.390625 6.875 -11.203125 C 6.875 -6.035156 8.84375 -3.453125 12.78125 -3.453125 Z M 12.78125 -3.453125 "/></g></g></g><g clip-path="url(#100a30e14b)"><path stroke-linecap="butt" transform="matrix(1.952211, 0, 0, 1.952211, 3.01807, 70.624722)" fill="none" stroke-linejoin="miter" d="M 0.000748398 1.000611 L 162.3607 1.000611 " stroke="#002c54" stroke-width="2" stroke-opacity="1" stroke-miterlimit="4"/></g></g></g></svg>